<?xml version="1.0" encoding="UTF-8"?>
<svg width="800" height="400" viewBox="0 0 800 400" xmlns="http://www.w3.org/2000/svg">
  <!-- ETH Icons -->
  <g transform="translate(50, 50)">
    <text x="0" y="-10" font-family="Arial, sans-serif" font-size="14" font-weight="bold" fill="#e2e8f0">ETH Icons</text>
    
    <!-- Standard ETH Symbol -->
    <g transform="translate(0, 0)">
      <circle cx="20" cy="20" r="18" fill="#3b82f6" stroke="#60a5fa" stroke-width="2"/>
      <text x="20" y="28" text-anchor="middle" font-family="Arial, sans-serif" font-size="16" font-weight="bold" fill="white">Ξ</text>
      <text x="20" y="50" text-anchor="middle" font-family="Arial, sans-serif" font-size="10" fill="#64748b">Standard</text>
    </g>
    
    <!-- Small ETH -->
    <g transform="translate(80, 0)">
      <circle cx="15" cy="15" r="13" fill="#3b82f6" stroke="#60a5fa" stroke-width="1.5"/>
      <text x="15" y="21" text-anchor="middle" font-family="Arial, sans-serif" font-size="12" font-weight="bold" fill="white">Ξ</text>
      <text x="15" y="45" text-anchor="middle" font-family="Arial, sans-serif" font-size="10" fill="#64748b">Small</text>
    </g>
    
    <!-- Large ETH -->
    <g transform="translate(140, 0)">
      <circle cx="25" cy="25" r="23" fill="#3b82f6" stroke="#60a5fa" stroke-width="3"/>
      <text x="25" y="35" text-anchor="middle" font-family="Arial, sans-serif" font-size="20" font-weight="bold" fill="white">Ξ</text>
      <text x="25" y="65" text-anchor="middle" font-family="Arial, sans-serif" font-size="10" fill="#64748b">Large</text>
    </g>
  </g>
  
  <!-- Staking Icons -->
  <g transform="translate(350, 50)">
    <text x="0" y="-10" font-family="Arial, sans-serif" font-size="14" font-weight="bold" fill="#e2e8f0">Staking Icons</text>
    
    <!-- Staking Lock -->
    <g transform="translate(0, 0)">
      <rect x="10" y="15" width="20" height="15" rx="3" fill="#f59e0b" stroke="#f97316" stroke-width="1.5"/>
      <circle cx="20" cy="12" r="5" fill="none" stroke="#f59e0b" stroke-width="2"/>
      <text x="20" y="50" text-anchor="middle" font-family="Arial, sans-serif" font-size="10" fill="#64748b">Lock</text>
    </g>
    
    <!-- Staking Yield -->
    <g transform="translate(60, 0)">
      <circle cx="20" cy="20" r="15" fill="#10b981" stroke="#34d399" stroke-width="2"/>
      <path d="M15 20 L20 15 L25 20 L20 25 Z" fill="white"/>
      <text x="20" y="50" text-anchor="middle" font-family="Arial, sans-serif" font-size="10" fill="#64748b">Yield</text>
    </g>
    
    <!-- Compound Interest -->
    <g transform="translate(120, 0)">
      <circle cx="20" cy="20" r="15" fill="#8b5cf6" stroke="#a78bfa" stroke-width="2"/>
      <path d="M12 15 Q20 10 28 15 Q20 20 12 25 Q20 30 28 25" stroke="white" stroke-width="2" fill="none"/>
      <text x="20" y="50" text-anchor="middle" font-family="Arial, sans-serif" font-size="10" fill="#64748b">Compound</text>
    </g>
  </g>
  
  <!-- Rarity Icons -->
  <g transform="translate(50, 150)">
    <text x="0" y="-10" font-family="Arial, sans-serif" font-size="14" font-weight="bold" fill="#e2e8f0">Rarity Icons</text>
    
    <!-- Common -->
    <g transform="translate(0, 0)">
      <circle cx="15" cy="15" r="10" fill="#6b7280" stroke="#9ca3af" stroke-width="1"/>
      <text x="15" y="40" text-anchor="middle" font-family="Arial, sans-serif" font-size="10" fill="#64748b">Common</text>
    </g>
    
    <!-- Uncommon -->
    <g transform="translate(60, 0)">
      <polygon points="15,5 20,15 15,25 10,15" fill="#3b82f6" stroke="#60a5fa" stroke-width="1"/>
      <text x="15" y="40" text-anchor="middle" font-family="Arial, sans-serif" font-size="10" fill="#64748b">Uncommon</text>
    </g>
    
    <!-- Rare -->
    <g transform="translate(120, 0)">
      <polygon points="15,5 18,12 25,12 20,17 22,25 15,21 8,25 10,17 5,12 12,12" fill="#fbbf24" stroke="#f59e0b" stroke-width="1"/>
      <text x="15" y="40" text-anchor="middle" font-family="Arial, sans-serif" font-size="10" fill="#64748b">Rare</text>
    </g>
    
    <!-- Epic -->
    <g transform="translate(180, 0)">
      <polygon points="15,5 18,12 25,12 20,17 22,25 15,21 8,25 10,17 5,12 12,12" fill="#8b5cf6" stroke="#a78bfa" stroke-width="1"/>
      <circle cx="15" cy="15" r="3" fill="white"/>
      <text x="15" y="40" text-anchor="middle" font-family="Arial, sans-serif" font-size="10" fill="#64748b">Epic</text>
    </g>
    
    <!-- Legendary -->
    <g transform="translate(240, 0)">
      <polygon points="15,5 18,12 25,12 20,17 22,25 15,21 8,25 10,17 5,12 12,12" fill="#f59e0b" stroke="#f97316" stroke-width="2"/>
      <circle cx="15" cy="15" r="3" fill="white" stroke="#f59e0b" stroke-width="1"/>
      <text x="15" y="40" text-anchor="middle" font-family="Arial, sans-serif" font-size="10" fill="#64748b">Legendary</text>
    </g>
  </g>
  
  <!-- Status Effect Icons -->
  <g transform="translate(50, 250)">
    <text x="0" y="-10" font-family="Arial, sans-serif" font-size="14" font-weight="bold" fill="#e2e8f0">Status Effects</text>
    
    <!-- Shield (Protection) -->
    <g transform="translate(0, 0)">
      <path d="M15 5 L25 10 L25 20 Q25 25 15 30 Q5 25 5 20 L5 10 Z" fill="#3b82f6" stroke="#60a5fa" stroke-width="1"/>
      <text x="15" y="45" text-anchor="middle" font-family="Arial, sans-serif" font-size="10" fill="#64748b">Shield</text>
    </g>
    
    <!-- Lightning (Fast) -->
    <g transform="translate(60, 0)">
      <path d="M10 5 L20 5 L15 15 L25 15 L15 30 L5 20 L15 20 Z" fill="#fbbf24" stroke="#f59e0b" stroke-width="1"/>
      <text x="15" y="45" text-anchor="middle" font-family="Arial, sans-serif" font-size="10" fill="#64748b">Lightning</text>
    </g>
    
    <!-- Fire (Burn) -->
    <g transform="translate(120, 0)">
      <path d="M15 30 Q10 25 10 20 Q10 15 15 15 Q15 10 20 10 Q25 15 25 20 Q25 25 20 30 Q15 30 15 30" fill="#dc2626" stroke="#ef4444" stroke-width="1"/>
      <text x="15" y="45" text-anchor="middle" font-family="Arial, sans-serif" font-size="10" fill="#64748b">Burn</text>
    </g>
    
    <!-- Freeze -->
    <g transform="translate(180, 0)">
      <polygon points="15,5 20,10 25,10 20,15 25,20 20,20 15,25 10,20 5,20 10,15 5,10 10,10" fill="#06b6d4" stroke="#0891b2" stroke-width="1"/>
      <text x="15" y="45" text-anchor="middle" font-family="Arial, sans-serif" font-size="10" fill="#64748b">Freeze</text>
    </g>
  </g>
  
  <!-- Action Icons -->
  <g transform="translate(450, 150)">
    <text x="0" y="-10" font-family="Arial, sans-serif" font-size="14" font-weight="bold" fill="#e2e8f0">Action Icons</text>
    
    <!-- Attack -->
    <g transform="translate(0, 0)">
      <path d="M5 25 L15 5 L25 25 L20 20 L15 30 L10 20 Z" fill="#dc2626" stroke="#ef4444" stroke-width="1"/>
      <text x="15" y="45" text-anchor="middle" font-family="Arial, sans-serif" font-size="10" fill="#64748b">Attack</text>
    </g>
    
    <!-- Defense -->
    <g transform="translate(60, 0)">
      <rect x="5" y="10" width="20" height="20" rx="3" fill="#6b7280" stroke="#9ca3af" stroke-width="2"/>
      <rect x="10" y="15" width="10" height="10" rx="2" fill="#374151"/>
      <text x="15" y="45" text-anchor="middle" font-family="Arial, sans-serif" font-size="10" fill="#64748b">Defense</text>
    </g>
    
    <!-- Draw Card -->
    <g transform="translate(120, 0)">
      <rect x="8" y="10" width="14" height="20" rx="2" fill="#3b82f6" stroke="#60a5fa" stroke-width="1"/>
      <path d="M18 15 L23 20 L18 25" stroke="#60a5fa" stroke-width="2" fill="none"/>
      <text x="15" y="45" text-anchor="middle" font-family="Arial, sans-serif" font-size="10" fill="#64748b">Draw</text>
    </g>
    
    <!-- Discard -->
    <g transform="translate(180, 0)">
      <rect x="8" y="10" width="14" height="20" rx="2" fill="#dc2626" stroke="#ef4444" stroke-width="1"/>
      <path d="M12 18 L18 24 M18 18 L12 24" stroke="white" stroke-width="2"/>
      <text x="15" y="45" text-anchor="middle" font-family="Arial, sans-serif" font-size="10" fill="#64748b">Discard</text>
    </g>
  </g>
  
  <!-- Card Type Icons -->
  <g transform="translate(450, 250)">
    <text x="0" y="-10" font-family="Arial, sans-serif" font-size="14" font-weight="bold" fill="#e2e8f0">Card Type Icons</text>
    
    <!-- Chain -->
    <g transform="translate(0, 0)">
      <rect x="8" y="15" width="6" height="4" rx="1" fill="#3b82f6"/>
      <rect x="16" y="18" width="6" height="4" rx="1" fill="#3b82f6"/>
      <rect x="8" y="21" width="6" height="4" rx="1" fill="#3b82f6"/>
      <text x="15" y="40" text-anchor="middle" font-family="Arial, sans-serif" font-size="10" fill="#64748b">Chain</text>
    </g>
    
    <!-- DeFi -->
    <g transform="translate(60, 0)">
      <circle cx="15" cy="18" r="8" fill="#10b981" stroke="#34d399" stroke-width="2"/>
      <path d="M10 18 L15 13 L20 18 L15 23 Z" fill="white"/>
      <text x="15" y="40" text-anchor="middle" font-family="Arial, sans-serif" font-size="10" fill="#64748b">DeFi</text>
    </g>
    
    <!-- Action -->
    <g transform="translate(120, 0)">
      <circle cx="15" cy="18" r="8" fill="#dc2626" stroke="#ef4444" stroke-width="2"/>
      <path d="M10 13 L20 13 L20 18 L25 18 L15 25 L15 20 L10 20 Z" fill="white"/>
      <text x="15" y="40" text-anchor="middle" font-family="Arial, sans-serif" font-size="10" fill="#64748b">Action</text>
    </g>
    
    <!-- EOA -->
    <g transform="translate(180, 0)">
      <rect x="8" y="12" width="14" height="12" rx="2" fill="#0891b2" stroke="#06b6d4" stroke-width="1"/>
      <rect x="10" y="14" width="10" height="2" rx="1" fill="#0f172a"/>
      <rect x="10" y="18" width="10" height="2" rx="1" fill="#0f172a"/>
      <text x="15" y="40" text-anchor="middle" font-family="Arial, sans-serif" font-size="10" fill="#64748b">EOA</text>
    </g>
    
    <!-- Ability -->
    <g transform="translate(240, 0)">
      <rect x="8" y="10" width="10" height="16" rx="2" fill="#6b7280" stroke="#9ca3af" stroke-width="1"/>
      <rect x="10" y="12" width="6" height="1" rx="0.5" fill="#0f172a"/>
      <rect x="10" y="15" width="6" height="1" rx="0.5" fill="#0f172a"/>
      <rect x="10" y="18" width="6" height="1" rx="0.5" fill="#0f172a"/>
      <text x="15" y="40" text-anchor="middle" font-family="Arial, sans-serif" font-size="10" fill="#64748b">Ability</text>
    </g>
    
    <!-- Wallet -->
    <g transform="translate(300, 0)">
      <rect x="8" y="12" width="14" height="12" rx="2" fill="#fbbf24" stroke="#f59e0b" stroke-width="1"/>
      <circle cx="18" cy="18" r="2" fill="#0f172a"/>
      <text x="15" y="40" text-anchor="middle" font-family="Arial, sans-serif" font-size="10" fill="#64748b">Wallet</text>
    </g>
  </g>
</svg>