<?xml version="1.0" encoding="UTF-8"?>
<svg width="300" height="420" viewBox="0 0 300 420" xmlns="http://www.w3.org/2000/svg">
  <!-- Card Background -->
  <rect width="300" height="420" rx="15" fill="#0f172a" stroke="#1e293b" stroke-width="2"/>
  
  <!-- EOA Card Type Background -->
  <rect x="10" y="10" width="280" height="400" rx="12" fill="url(#eoaGradient)" opacity="0.1"/>
  
  <!-- Header Section -->
  <rect x="15" y="15" width="270" height="50" rx="8" fill="#1e293b" stroke="#0891b2" stroke-width="1"/>
  
  <!-- Cost Circle -->
  <circle cx="35" cy="40" r="15" fill="#0891b2" stroke="#06b6d4" stroke-width="2"/>
  <text x="35" y="47" text-anchor="middle" font-family="Arial, sans-serif" font-size="16" font-weight="bold" fill="white">3</text>
  
  <!-- Card Name -->
  <text x="65" y="40" font-family="Arial, sans-serif" font-size="16" font-weight="bold" fill="#e2e8f0">Multi-sig</text>
  <text x="65" y="55" font-family="Arial, sans-serif" font-size="16" font-weight="bold" fill="#e2e8f0">Wallet</text>
  
  <!-- Type Label -->
  <rect x="210" y="25" width="60" height="20" rx="10" fill="#0891b2" stroke="#0e7490" stroke-width="1"/>
  <text x="240" y="38" text-anchor="middle" font-family="Arial, sans-serif" font-size="12" font-weight="bold" fill="white">EOA</text>
  
  <!-- Art Area -->
  <rect x="15" y="75" width="270" height="180" rx="8" fill="#1e293b" stroke="#475569" stroke-width="1"/>
  
  <!-- Multi-sig Wallet Art -->
  <g transform="translate(150, 165)">
    <!-- Central secure vault -->
    <rect x="-35" y="-30" width="70" height="60" rx="10" fill="#374151" stroke="#4b5563" stroke-width="3"/>
    
    <!-- Multiple lock mechanisms -->
    <g transform="translate(-15, -15)">
      <rect x="-4" y="-8" width="8" height="12" rx="2" fill="#22c55e" stroke="#16a34a" stroke-width="1"/>
      <path d="M-3,-8 Q0,-12 3,-8" stroke="#22c55e" stroke-width="2" fill="none"/>
    </g>
    
    <g transform="translate(15, -15)">
      <rect x="-4" y="-8" width="8" height="12" rx="2" fill="#3b82f6" stroke="#1d4ed8" stroke-width="1"/>
      <path d="M-3,-8 Q0,-12 3,-8" stroke="#3b82f6" stroke-width="2" fill="none"/>
    </g>
    
    <g transform="translate(0, 5)">
      <rect x="-4" y="-8" width="8" height="12" rx="2" fill="#f59e0b" stroke="#d97706" stroke-width="1"/>
      <path d="M-3,-8 Q0,-12 3,-8" stroke="#f59e0b" stroke-width="2" fill="none"/>
    </g>
    
    <!-- Key holders around the wallet -->
    <g transform="translate(-50, -20)">
      <circle r="8" fill="#0891b2" opacity="0.8"/>
      <text x="0" y="3" text-anchor="middle" font-family="Arial, sans-serif" font-size="6" fill="white">KEY1</text>
    </g>
    
    <g transform="translate(50, -20)">
      <circle r="8" fill="#0891b2" opacity="0.8"/>
      <text x="0" y="3" text-anchor="middle" font-family="Arial, sans-serif" font-size="6" fill="white">KEY2</text>
    </g>
    
    <g transform="translate(-50, 20)">
      <circle r="8" fill="#0891b2" opacity="0.8"/>
      <text x="0" y="3" text-anchor="middle" font-family="Arial, sans-serif" font-size="6" fill="white">KEY3</text>
    </g>
    
    <g transform="translate(50, 20)">
      <circle r="8" fill="#6b7280" opacity="0.6"/>
      <text x="0" y="3" text-anchor="middle" font-family="Arial, sans-serif" font-size="6" fill="white">KEY4</text>
    </g>
    
    <!-- Connection lines showing required signatures -->
    <g opacity="0.5">
      <line x1="-42" y1="-20" x2="-25" y2="-15" stroke="#22c55e" stroke-width="2"/>
      <line x1="42" y1="-20" x2="25" y2="-15" stroke="#3b82f6" stroke-width="2"/>
      <line x1="-42" y1="20" x2="-10" y2="10" stroke="#f59e0b" stroke-width="2"/>
    </g>
    
    <!-- Shield protection indicator -->
    <g transform="translate(0, -45)" opacity="0.7">
      <path d="M0,-8 L-6,-2 L-6,4 L0,10 L6,4 L6,-2 Z" fill="#22c55e" stroke="#16a34a" stroke-width="1"/>
      <path d="M-2,0 L0,3 L4,-2" stroke="white" stroke-width="1.5" fill="none" stroke-linecap="round"/>
    </g>
    
    <!-- Multi-sig requirement text -->
    <text x="0" y="45" text-anchor="middle" font-family="Arial, sans-serif" font-size="9" fill="#0891b2">3/4 Signatures Required</text>
    
    <!-- Storage capacity indicator -->
    <text x="0" y="60" text-anchor="middle" font-family="Arial, sans-serif" font-size="8" fill="#34d399">Max 8 ETH Storage</text>
  </g>
  
  <!-- EOA Motif Overlay -->
  <g opacity="0.3">
    <!-- Multi-lock wallet icon -->
    <rect x="20" y="85" width="20" height="15" rx="2" fill="#0891b2" stroke="#06b6d4" stroke-width="1"/>
    <rect x="22" y="87" width="6" height="3" rx="1" fill="#22c55e"/>
    <rect x="30" y="87" width="6" height="3" rx="1" fill="#3b82f6"/>
    <rect x="22" y="92" width="6" height="3" rx="1" fill="#f59e0b"/>
    <rect x="30" y="92" width="6" height="3" rx="1" fill="#6b7280"/>
    
    <!-- Multi-sig indicator -->
    <g transform="translate(248, 92)">
      <circle r="6" fill="#22c55e" opacity="0.7"/>
      <text x="0" y="2" text-anchor="middle" font-family="Arial, sans-serif" font-size="5" fill="white">3/4</text>
    </g>
  </g>
  
  <!-- Description Box -->
  <rect x="15" y="265" width="270" height="80" rx="8" fill="#1e293b" stroke="#475569" stroke-width="1"/>
  <text x="25" y="278" font-family="Arial, sans-serif" font-size="11" fill="#e2e8f0">Storage max 8. The first time each turn</text>
  <text x="25" y="291" font-family="Arial, sans-serif" font-size="11" fill="#e2e8f0">this would be stolen from or destroyed,</text>
  <text x="25" y="304" font-family="Arial, sans-serif" font-size="11" fill="#e2e8f0">prevent it.</text>
  
  <!-- Storage Capacity -->
  <g transform="translate(15, 355)">
    <rect width="100" height="25" rx="5" fill="#374151" stroke="#6b7280" stroke-width="1"/>
    <text x="50" y="17" text-anchor="middle" font-family="Arial, sans-serif" font-size="11" fill="#e2e8f0">Max: 8Ξ</text>
  </g>
  
  <!-- Protection Indicator -->
  <g transform="translate(130, 355)">
    <rect width="60" height="25" rx="5" fill="#22c55e" stroke="#16a34a" stroke-width="1"/>
    <text x="30" y="17" text-anchor="middle" font-family="Arial, sans-serif" font-size="10" font-weight="bold" fill="white">SHIELD</text>
  </g>
  
  <!-- ETH Icon -->
  <circle cx="220" cy="367" r="12" fill="#0891b2" stroke="#06b6d4" stroke-width="2"/>
  <text x="220" y="373" text-anchor="middle" font-family="Arial, sans-serif" font-size="10" font-weight="bold" fill="white">Ξ</text>
  
  <!-- Rarity Indicator (Uncommon - cost 3) -->
  <g transform="translate(250, 355)">
    <polygon points="0,10 5,0 10,10 7.5,15 2.5,15" fill="#22c55e" stroke="#16a34a" stroke-width="1"/>
  </g>
  
  <!-- Gradients -->
  <defs>
    <linearGradient id="eoaGradient" x1="0%" y1="0%" x2="100%" y2="100%">
      <stop offset="0%" style="stop-color:#0891b2;stop-opacity:1" />
      <stop offset="50%" style="stop-color:#0e7490;stop-opacity:1" />
      <stop offset="100%" style="stop-color:#fbbf24;stop-opacity:0.4" />
    </linearGradient>
  </defs>
</svg>