<?xml version="1.0" encoding="UTF-8"?>
<svg width="300" height="420" viewBox="0 0 300 420" xmlns="http://www.w3.org/2000/svg">
  <!-- Card Background -->
  <rect width="300" height="420" rx="15" fill="#0f172a" stroke="#1e293b" stroke-width="2"/>
  
  <!-- DeFi Card Type Background -->
  <rect x="10" y="10" width="280" height="400" rx="12" fill="url(#defiGradient)" opacity="0.1"/>
  
  <!-- Header Section -->
  <rect x="15" y="15" width="270" height="50" rx="8" fill="#1e293b" stroke="#10b981" stroke-width="1"/>
  
  <!-- Cost Circle -->
  <circle cx="35" cy="40" r="15" fill="#10b981" stroke="#34d399" stroke-width="2"/>
  <text x="35" y="47" text-anchor="middle" font-family="Arial, sans-serif" font-size="16" font-weight="bold" fill="white">2</text>
  
  <!-- Card Name -->
  <text x="65" y="47" font-family="Arial, sans-serif" font-size="18" font-weight="bold" fill="#e2e8f0">Pendle</text>
  
  <!-- Type Label -->
  <rect x="200" y="25" width="70" height="20" rx="10" fill="#059669" stroke="#047857" stroke-width="1"/>
  <text x="235" y="38" text-anchor="middle" font-family="Arial, sans-serif" font-size="12" font-weight="bold" fill="white">DeFi</text>
  
  <!-- Art Area -->
  <rect x="15" y="75" width="270" height="180" rx="8" fill="#1e293b" stroke="#475569" stroke-width="1"/>
  
  <!-- Pendle Art -->
  <g transform="translate(150, 165)">
    <!-- Pendulum representing time-based yield trading -->
    <line x1="0" y1="-60" x2="0" y2="-20" stroke="#94a3b8" stroke-width="2"/>
    <circle cx="0" cy="-20" r="3" fill="#94a3b8"/>
    
    <!-- Swinging pendulum bob -->
    <circle cx="25" cy="20" r="15" fill="#f59e0b" stroke="#fbbf24" stroke-width="2"/>
    <line x1="0" y1="-20" x2="25" y2="20" stroke="#94a3b8" stroke-width="2"/>
    
    <!-- Yield components -->
    <g transform="translate(-40, -10)">
      <rect width="25" height="15" rx="3" fill="#34d399" opacity="0.7"/>
      <text x="12.5" y="10" text-anchor="middle" font-family="Arial, sans-serif" font-size="8" fill="white">YT</text>
    </g>
    
    <g transform="translate(-40, 15)">
      <rect width="25" height="15" rx="3" fill="#10b981" opacity="0.7"/>
      <text x="12.5" y="10" text-anchor="middle" font-family="Arial, sans-serif" font-size="8" fill="white">PT</text>
    </g>
    
    <!-- Time progression arrow -->
    <path d="M-60,40 L60,40" stroke="#6b7280" stroke-width="1" marker-end="url(#arrowhead)"/>
    <text x="0" y="55" text-anchor="middle" font-family="Arial, sans-serif" font-size="10" fill="#9ca3af">Time</text>
  </g>
  
  <!-- DeFi Motif Overlay -->
  <g opacity="0.3">
    <!-- Yield arrows -->
    <path d="M20 90 L35 85 L35 95 Z" fill="#10b981"/>
    <path d="M40 85 L55 90 L40 95 Z" fill="#10b981"/>
    
    <!-- Staking indicator -->
    <rect x="240" y="85" width="20" height="15" rx="3" fill="#f59e0b" stroke="#f97316" stroke-width="1"/>
    <text x="250" y="95" text-anchor="middle" font-family="Arial, sans-serif" font-size="8" font-weight="bold" fill="white">STAKE</text>
  </g>
  
  <!-- Description Box -->
  <rect x="15" y="265" width="270" height="80" rx="8" fill="#1e293b" stroke="#475569" stroke-width="1"/>
  <text x="25" y="285" font-family="Arial, sans-serif" font-size="14" fill="#e2e8f0">Gain 1 ETH per ETH stored here.</text>
  
  <!-- Yield/Income Indicator -->
  <g transform="translate(200, 275)">
    <rect width="60" height="25" rx="5" fill="#f59e0b" stroke="#f97316" stroke-width="1"/>
    <text x="30" y="17" text-anchor="middle" font-family="Arial, sans-serif" font-size="11" font-weight="bold" fill="white">1Ξ</text>
  </g>
  
  <!-- Staking Box -->
  <rect x="15" y="355" width="80" height="30" rx="5" fill="#374151" stroke="#6b7280" stroke-width="1"/>
  <text x="25" y="375" font-family="Arial, sans-serif" font-size="12" fill="#e2e8f0">Staked: 0Ξ</text>
  
  <!-- ETH Icon -->
  <circle cx="120" cy="370" r="12" fill="#10b981" stroke="#34d399" stroke-width="2"/>
  <text x="120" y="376" text-anchor="middle" font-family="Arial, sans-serif" font-size="10" font-weight="bold" fill="white">Ξ</text>
  
  <!-- Rarity Indicator (Common - cost 2) -->
  <g transform="translate(250, 355)">
    <polygon points="0,10 5,0 10,10 7.5,15 2.5,15" fill="#94a3b8" stroke="#64748b" stroke-width="1"/>
  </g>
  
  <!-- Arrow marker definition -->
  <defs>
    <marker id="arrowhead" markerWidth="10" markerHeight="7" refX="9" refY="3.5" orient="auto">
      <polygon points="0 0, 10 3.5, 0 7" fill="#6b7280"/>
    </marker>
    
    <linearGradient id="defiGradient" x1="0%" y1="0%" x2="100%" y2="100%">
      <stop offset="0%" style="stop-color:#10b981;stop-opacity:1" />
      <stop offset="50%" style="stop-color:#059669;stop-opacity:1" />
      <stop offset="100%" style="stop-color:#f59e0b;stop-opacity:0.8" />
    </linearGradient>
  </defs>
</svg>