<svg width="400" height="560" viewBox="0 0 400 560" xmlns="http://www.w3.org/2000/svg">
  <!-- Background -->
  <rect width="400" height="560" fill="#0a0a0f"/>
  
  <!-- Gradient definitions -->
  <defs>
    <!-- Main gradient for text -->
    <linearGradient id="textGradient" x1="0%" y1="0%" x2="100%" y2="100%">
      <stop offset="0%" style="stop-color:#ff6b00;stop-opacity:1" />
      <stop offset="50%" style="stop-color:#ffa500;stop-opacity:1" />
      <stop offset="100%" style="stop-color:#ffcc00;stop-opacity:1" />
    </linearGradient>
    
    <!-- Circuit line gradients -->
    <linearGradient id="circuitGradient1" x1="0%" y1="0%" x2="100%" y2="0%">
      <stop offset="0%" style="stop-color:#00d4ff;stop-opacity:0.3" />
      <stop offset="50%" style="stop-color:#ff00ff;stop-opacity:0.5" />
      <stop offset="100%" style="stop-color:#ff6b00;stop-opacity:0.3" />
    </linearGradient>
    
    <!-- Glow effect -->
    <filter id="glow">
      <feGaussianBlur stdDeviation="3" result="coloredBlur"/>
      <feMerge>
        <feMergeNode in="coloredBlur"/>
        <feMergeNode in="SourceGraphic"/>
      </feMerge>
    </filter>
    
    <!-- Text glow -->
    <filter id="textGlow">
      <feGaussianBlur stdDeviation="4" result="coloredBlur"/>
      <feMerge>
        <feMergeNode in="coloredBlur"/>
        <feMergeNode in="SourceGraphic"/>
      </feMerge>
    </filter>
  </defs>
  
  <!-- Circuit pattern background -->
  <g opacity="0.3">
    <!-- Top left circuit -->
    <path d="M0,50 L50,50 L50,100 L100,100" stroke="#00d4ff" stroke-width="2" fill="none"/>
    <circle cx="50" cy="50" r="4" fill="#00d4ff"/>
    <circle cx="100" cy="100" r="4" fill="#00d4ff"/>
    
    <!-- Top right circuit -->
    <path d="M400,80 L350,80 L350,120 L300,120 L300,150" stroke="#ff00ff" stroke-width="2" fill="none"/>
    <circle cx="350" cy="80" r="4" fill="#ff00ff"/>
    <circle cx="300" cy="150" r="4" fill="#ff00ff"/>
    
    <!-- Bottom left circuit -->
    <path d="M0,480 L60,480 L60,430 L120,430" stroke="#ff6b00" stroke-width="2" fill="none"/>
    <circle cx="60" cy="480" r="4" fill="#ff6b00"/>
    <circle cx="120" cy="430" r="4" fill="#ff6b00"/>
    
    <!-- Bottom right circuit -->
    <path d="M400,500 L340,500 L340,460 L280,460 L280,420" stroke="#00d4ff" stroke-width="2" fill="none"/>
    <circle cx="340" cy="500" r="4" fill="#00d4ff"/>
    <circle cx="280" cy="420" r="4" fill="#00d4ff"/>
    
    <!-- Additional circuit lines -->
    <path d="M50,200 L80,200 L80,250 L120,250" stroke="url(#circuitGradient1)" stroke-width="1.5" fill="none"/>
    <path d="M350,200 L320,200 L320,250 L280,250" stroke="url(#circuitGradient1)" stroke-width="1.5" fill="none"/>
    <path d="M100,350 L130,350 L130,400 L170,400" stroke="url(#circuitGradient1)" stroke-width="1.5" fill="none"/>
    <path d="M300,350 L270,350 L270,400 L230,400" stroke="url(#circuitGradient1)" stroke-width="1.5" fill="none"/>
  </g>
  
  <!-- Hexagonal tech pattern -->
  <g opacity="0.2">
    <polygon points="200,100 230,117 230,151 200,168 170,151 170,117" 
             stroke="#00d4ff" stroke-width="1" fill="none"/>
    <polygon points="100,200 130,217 130,251 100,268 70,251 70,217" 
             stroke="#ff00ff" stroke-width="1" fill="none"/>
    <polygon points="300,200 330,217 330,251 300,268 270,251 270,217" 
             stroke="#ff6b00" stroke-width="1" fill="none"/>
    <polygon points="200,400 230,417 230,451 200,468 170,451 170,417" 
             stroke="#00d4ff" stroke-width="1" fill="none"/>
  </g>
  
  <!-- Main border with gradient -->
  <rect x="20" y="20" width="360" height="520" rx="15" ry="15" 
        stroke="url(#circuitGradient1)" stroke-width="3" fill="none" filter="url(#glow)"/>
  
  <!-- Inner border -->
  <rect x="30" y="30" width="340" height="500" rx="10" ry="10" 
        stroke="#333" stroke-width="1" fill="none"/>
  
  <!-- Center Ethereum symbol -->
  <g transform="translate(200, 280)">
    <!-- Ethereum shape -->
    <path d="M0,-60 L-25,-20 L0,-5 L25,-20 Z" fill="#627eea" opacity="0.8" filter="url(#glow)"/>
    <path d="M0,-5 L-25,-20 L-25,-10 L0,20 L25,-10 L25,-20 Z" fill="#5269d8" opacity="0.8" filter="url(#glow)"/>
    <!-- Inner glow -->
    <path d="M0,-50 L-20,-20 L0,-10 L20,-20 Z" fill="#8fa3ff" opacity="0.4"/>
  </g>
  
  <!-- TOKEN text -->
  <text x="200" y="170" font-family="Arial Black, sans-serif" font-size="55" font-weight="900" 
        text-anchor="middle" fill="url(#textGradient)" filter="url(#textGlow)"
        stroke="#ff6b00" stroke-width="1">TOKEN</text>
  
  <!-- TYCOON text -->
  <text x="200" y="400" font-family="Arial Black, sans-serif" font-size="55" font-weight="900" 
        text-anchor="middle" fill="url(#textGradient)" filter="url(#textGlow)"
        stroke="#ff6b00" stroke-width="1">TYCOON</text>
  
  <!-- Corner decorations -->
  <g opacity="0.6">
    <!-- Top left -->
    <path d="M40,40 L40,60 M40,40 L60,40" stroke="#00d4ff" stroke-width="2" stroke-linecap="round"/>
    <!-- Top right -->
    <path d="M360,40 L360,60 M360,40 L340,40" stroke="#ff00ff" stroke-width="2" stroke-linecap="round"/>
    <!-- Bottom left -->
    <path d="M40,520 L40,500 M40,520 L60,520" stroke="#ff6b00" stroke-width="2" stroke-linecap="round"/>
    <!-- Bottom right -->
    <path d="M360,520 L360,500 M360,520 L340,520" stroke="#00d4ff" stroke-width="2" stroke-linecap="round"/>
  </g>
  
  <!-- Floating particles for dynamic effect -->
  <g opacity="0.4">
    <circle cx="80" cy="150" r="2" fill="#00d4ff">
      <animate attributeName="cy" values="150;140;150" dur="3s" repeatCount="indefinite"/>
    </circle>
    <circle cx="320" cy="180" r="2" fill="#ff00ff">
      <animate attributeName="cy" values="180;170;180" dur="2.5s" repeatCount="indefinite"/>
    </circle>
    <circle cx="120" cy="380" r="2" fill="#ff6b00">
      <animate attributeName="cy" values="380;370;380" dur="2.8s" repeatCount="indefinite"/>
    </circle>
    <circle cx="280" cy="350" r="2" fill="#00d4ff">
      <animate attributeName="cy" values="350;340;350" dur="3.2s" repeatCount="indefinite"/>
    </circle>
  </g>
</svg>